# xmcd
#
# Track frame offsets:
#	150
#	11238
#	25025
#	36550
#	52975
#	64675
#	75988
#	87963
#	99275
#	113850
#
# Disc length: 1698 seconds
#
# Revision: 3
# Processed by: cddbd v1.5.2PL0 Copyright (c) Steve Scherf et al.
# Submitted via: audiograbber 1.83.01
#
DISCID=7106a00a
DTITLE=Billy Joe Royal - The Best Of  
DYEAR=1995
DGENRE=Oldies
TTITLE0=I Never Promised You A Rose Garden
TTITLE1=I've Got To Be Somebody
TTITLE2=I Knew You When
TTITLE3=Tulsa
TTITLE4=Down In The Boondocks
TTITLE5=Hush
TTITLE6=Heart's Desire
TTITLE7=Campfire Girls
TTITLE8=Every Night
TTITLE9=Cherry Hill Park
EXTD=
EXTT0=
EXTT1=
EXTT2=
EXTT3=
EXTT4=
EXTT5=
EXTT6=
EXTT7=
EXTT8=
EXTT9=
PLAYORDER=
